<?xml version="1.0" encoding="UTF-8" standalone="no"?>
<!DOCTYPE svg PUBLIC "-//W3C//DTD SVG 1.1//EN" "http://www.w3.org/Graphics/SVG/1.1/DTD/svg11.dtd">
<svg width="100%" height="100%" viewBox="0 0 24 24" version="1.1" xmlns="http://www.w3.org/2000/svg" xmlns:xlink="http://www.w3.org/1999/xlink" xml:space="preserve" xmlns:serif="http://www.serif.com/" style="fill-rule:evenodd;clip-rule:evenodd;stroke-linejoin:round;stroke-miterlimit:2;">
    <path d="M18.67,1.995C19.174,1.995 19.678,2.176 20.081,2.579C20.081,2.579 21.415,3.913 21.402,3.901C22.19,4.649 22.209,5.963 21.421,6.751L12.461,15.711C12.068,16.103 11.432,16.103 11.039,15.711L8.289,12.961C7.897,12.568 7.897,11.932 8.289,11.539L17.249,2.579C17.255,2.573 17.261,2.567 17.268,2.561C17.662,2.186 18.157,1.995 18.67,1.995ZM18.67,3C18.41,3 18.16,3.1 17.96,3.29L9,12.25L11.75,15L20.71,6.04C21.1,5.65 21.1,5 20.71,4.63L19.37,3.29C19.17,3.09 18.92,3 18.67,3Z"/>
    <path d="M7,14C8.66,14 10,15.34 10,17C10,19.21 8.21,21 6,21C4.5,21 2.92,20.22 2,19C2.84,19 4,18.31 4,17C4,15.34 5.34,14 7,14ZM7,15.005C5.896,15.005 5.005,15.896 5.005,17C5.005,18.055 4.505,18.842 3.846,19.345C4.496,19.757 5.26,19.995 6,19.995C7.655,19.995 8.995,18.655 8.995,17C8.995,15.896 8.104,15.005 7,15.005Z"/>
</svg>
