<svg xmlns="http://www.w3.org/2000/svg" xml:space="preserve" style="fill-rule:evenodd;clip-rule:evenodd;stroke-linejoin:round;stroke-miterlimit:2" viewBox="0 0 24 24"><path d="M18.67 1.995c.504 0 1.008.181 1.411.584l1.321 1.322c.788.748.807 2.062.019 2.85l-8.96 8.96a1.007 1.007 0 0 1-1.422 0l-2.75-2.75a1.007 1.007 0 0 1 0-1.422l8.96-8.96a2.016 2.016 0 0 1 1.421-.584Zm0 1.005c-.26 0-.51.1-.71.29L9 12.25 11.75 15l8.96-8.96c.39-.39.39-1.04 0-1.41l-1.34-1.34c-.2-.2-.45-.29-.7-.29ZM7 14c1.66 0 3 1.34 3 3 0 2.21-1.79 4-4 4-1.5 0-3.08-.78-4-2 .84 0 2-.69 2-2 0-1.66 1.34-3 3-3Zm0 1.005A1.992 1.992 0 0 0 5.005 17c0 1.055-.5 1.842-1.159 2.345.65.412 1.414.65 2.154.65A2.994 2.994 0 0 0 8.995 17 1.992 1.992 0 0 0 7 15.005Z"/></svg>