<?xml version="1.0" encoding="UTF-8" standalone="no"?>
<!DOCTYPE svg PUBLIC "-//W3C//DTD SVG 1.1//EN" "http://www.w3.org/Graphics/SVG/1.1/DTD/svg11.dtd">
<svg width="100%" height="100%" viewBox="0 0 24 24" version="1.1" xmlns="http://www.w3.org/2000/svg" xmlns:xlink="http://www.w3.org/1999/xlink" xml:space="preserve" xmlns:serif="http://www.serif.com/" style="fill-rule:evenodd;clip-rule:evenodd;stroke-linecap:round;stroke-linejoin:round;stroke-miterlimit:1.5;">
    <g>
        <path d="M17.423,6.442C19.046,8.73 19.708,10.819 20.094,13.5" style="fill:none;stroke:black;stroke-width:1px;"/>
        <g transform="matrix(0.918149,0,0,0.918149,1.63687,1.40504)">
            <circle cx="14.523" cy="9.656" r="1.48"/>
        </g>
    </g>
    <g transform="matrix(-1,0,0,1,24,0)">
        <path d="M17.423,6.442C19.046,8.73 19.708,10.819 20.094,13.5" style="fill:none;stroke:black;stroke-width:1px;"/>
        <g transform="matrix(0.918149,0,0,0.918149,1.63687,1.40504)">
            <circle cx="14.523" cy="9.656" r="1.48"/>
        </g>
    </g>
    <path d="M18,4C16.29,4 15.25,4.33 14.65,4.61C13.88,4.23 13,4 12,4C11,4 10.12,4.23 9.35,4.61C8.75,4.33 7.71,4 6,4C3,4 1,12 1,14C1,14.83 2.32,15.59 4.14,15.9C4.78,18.14 7.8,19.85 11.5,20L11.5,15.72C10.91,15.35 10,14.68 10,14C10,13 12,13 12,13C12,13 14,13 14,14C14,14.68 13.09,15.35 12.5,15.72L12.5,20C16.2,19.85 19.22,18.14 19.86,15.9C21.68,15.59 23,14.83 23,14C23,12 21,4 18,4ZM18,4.969C16.501,4.969 15.586,5.243 15.06,5.488C14.793,5.613 14.485,5.609 14.221,5.479C13.576,5.161 12.838,4.969 12,4.969C11.162,4.969 10.424,5.161 9.779,5.479C9.515,5.609 9.207,5.613 8.94,5.488C8.414,5.243 7.499,4.969 6,4.969C5.641,4.969 5.33,5.207 5.024,5.523C4.574,5.987 4.173,6.639 3.814,7.371C2.676,9.693 1.984,12.805 1.97,13.964C1.983,13.983 2.013,14.025 2.036,14.049C2.126,14.143 2.245,14.23 2.384,14.313C2.858,14.595 3.529,14.813 4.303,14.944C4.67,15.007 4.97,15.275 5.072,15.634C5.274,16.34 5.795,16.963 6.511,17.484C7.533,18.226 8.937,18.745 10.531,18.948C10.531,18.948 10.531,16.235 10.531,16.235C10.21,16.003 9.876,15.722 9.619,15.42C9.482,15.259 9.367,15.09 9.276,14.918C9.117,14.617 9.031,14.305 9.031,14C9.031,13.332 9.382,12.833 9.944,12.506C10.717,12.055 12,12.031 12,12.031C12,12.031 13.283,12.055 14.056,12.506C14.618,12.833 14.969,13.332 14.969,14C14.969,14.481 14.756,14.978 14.381,15.42C14.124,15.722 13.79,16.003 13.469,16.235C13.469,16.235 13.469,18.948 13.469,18.948C15.063,18.745 16.467,18.226 17.489,17.484C18.205,16.963 18.726,16.34 18.928,15.634C19.03,15.275 19.33,15.007 19.697,14.944C20.471,14.813 21.142,14.595 21.616,14.313C21.755,14.23 21.874,14.143 21.964,14.049C21.987,14.025 22.017,13.983 22.03,13.964C22.016,12.805 21.324,9.693 20.186,7.371C19.827,6.639 19.426,5.987 18.976,5.523C18.689,5.226 18.398,4.999 18.067,4.972L18,4.969Z"/>
</svg>
