<?xml version="1.0" encoding="UTF-8" standalone="no"?>
<!DOCTYPE svg PUBLIC "-//W3C//DTD SVG 1.1//EN" "http://www.w3.org/Graphics/SVG/1.1/DTD/svg11.dtd">
<svg width="100%" height="100%" viewBox="0 0 24 24" version="1.1" xmlns="http://www.w3.org/2000/svg" xmlns:xlink="http://www.w3.org/1999/xlink" xml:space="preserve" xmlns:serif="http://www.serif.com/" style="fill-rule:evenodd;clip-rule:evenodd;stroke-linejoin:round;stroke-miterlimit:2;">
    <path d="M19.142,14.716C18.804,18.356 15.738,21.21 12.01,21.21C8.282,21.21 5.215,18.356 4.878,14.716L19.142,14.716Z"/>
    <path d="M17.66,8C19.22,9.56 20,11.64 20,13.64C20,15.64 19.22,17.75 17.66,19.31C16.1,20.87 14.05,21.66 12,21.66C9.95,21.66 7.9,20.87 6.34,19.31C4.78,17.75 4,15.64 4,13.64C4,11.64 4.78,9.56 6.34,8L12,2.35L17.66,8ZM16.931,8.73L12,3.808L7.069,8.73C5.711,10.088 5.032,11.899 5.032,13.64C5.032,15.383 5.71,17.221 7.07,18.58C8.429,19.939 10.214,20.628 12,20.628C13.786,20.628 15.571,19.939 16.93,18.58C18.29,17.221 18.968,15.383 18.968,13.64C18.968,11.899 18.289,10.088 16.931,8.73Z" style="fill-rule:nonzero;"/>
</svg>
