<svg xmlns="http://www.w3.org/2000/svg" xml:space="preserve" style="fill-rule:evenodd;clip-rule:evenodd;stroke-linejoin:round;stroke-miterlimit:2" viewBox="0 0 24 24"><path d="M12 2.979c4.982 0 9.021 3.59 9.021 8.021 0 2.755-2.266 5.021-5.021 5.021h-1.77c-.811 0-1.479.668-1.479 1.479 0 .375.148.72.375.986.243.264.395.619.395 1.014 0 .834-.687 1.521-1.521 1.521-4.949 0-9.021-4.072-9.021-9.021 0-4.949 4.072-9.021 9.021-9.021Zm0 1.037C7.62 4.016 4.016 7.62 4.016 12S7.62 19.984 12 19.984a.486.486 0 0 0 .484-.484.46.46 0 0 0-.147-.341 2.567 2.567 0 0 1-.623-1.659 2.528 2.528 0 0 1 2.516-2.516H16c2.186 0 3.984-1.798 3.984-3.984 0-3.894-3.606-6.984-7.984-6.984Z" style="fill-rule:nonzero"/><circle cx="8.397" cy="9.878" r="1.434" transform="translate(-1.355 1.08)"/><circle cx="8.397" cy="9.878" r="1.434" transform="translate(5.947 -2.646)"/><circle cx="8.397" cy="9.878" r="1.434" transform="translate(8.74 .937)"/><circle cx="8.397" cy="9.878" r="1.434" transform="translate(1.249 -2.646)"/></svg>