<?xml version="1.0" encoding="UTF-8" standalone="no"?>
<!DOCTYPE svg PUBLIC "-//W3C//DTD SVG 1.1//EN" "http://www.w3.org/Graphics/SVG/1.1/DTD/svg11.dtd">
<svg width="100%" height="100%" viewBox="0 0 24 24" version="1.1" xmlns="http://www.w3.org/2000/svg" xmlns:xlink="http://www.w3.org/1999/xlink" xml:space="preserve" xmlns:serif="http://www.serif.com/" style="fill-rule:evenodd;clip-rule:evenodd;stroke-linejoin:round;stroke-miterlimit:2;">
    <g transform="matrix(1.0397,0,0,0.88625,0.400909,2.18352)">
        <path d="M9.284,4C9.392,3.786 9.609,3.683 9.813,3.749C10.017,3.814 10.159,4.032 10.159,4.281L10.159,19.196L2.578,19.196C2.384,19.196 2.204,19.074 2.108,18.875C2.012,18.677 2.013,18.434 2.112,18.238L9.284,4ZM3.283,18.089L9.215,18.089L9.215,6.312L3.283,18.089Z"/>
    </g>
    <g transform="matrix(-1.0397,0,0,0.88625,23.4774,2.18352)">
        <path d="M9.284,4C9.392,3.786 9.609,3.683 9.813,3.749C10.017,3.814 10.159,4.032 10.159,4.281C10.159,8.77 10.159,19.196 10.159,19.196L2.578,19.196C2.384,19.196 2.204,19.074 2.108,18.875C2.012,18.677 2.013,18.434 2.112,18.238C3.498,15.488 7.502,7.539 9.284,4Z"/>
        <path d="M9.284,4L2.112,18.238C2.013,18.434 2.012,18.677 2.108,18.875C2.204,19.074 2.384,19.196 2.578,19.196L10.159,19.196L10.159,4.281C10.159,4.032 10.017,3.814 9.813,3.749C9.609,3.683 9.392,3.786 9.284,4ZM9.215,6.312L9.215,18.089L3.283,18.089L9.215,6.312Z"/>
    </g>
</svg>
