<svg xmlns="http://www.w3.org/2000/svg" xml:space="preserve" style="fill-rule:evenodd;clip-rule:evenodd;stroke-linejoin:round;stroke-miterlimit:2" viewBox="0 0 24 24"><path d="M10.053 5.729a.489.489 0 0 1 .91.249v13.218H3.081a.561.561 0 0 1-.484-.85L10.053 5.73ZM3.814 18.215h6.168V7.778L3.814 18.215ZM13.825 5.729a.489.489 0 0 0-.91.249v13.218h7.882a.561.561 0 0 0 .485-.85c-1.442-2.436-5.604-9.48-7.457-12.616Z"/><path d="m13.825 5.729 7.457 12.618a.562.562 0 0 1-.485.849h-7.882V5.978a.488.488 0 0 1 .91-.25Zm.072 2.049v10.437h6.167L13.897 7.778Z"/></svg>