<svg xmlns="http://www.w3.org/2000/svg" xml:space="preserve" style="fill-rule:evenodd;clip-rule:evenodd;stroke-linejoin:round;stroke-miterlimit:2" viewBox="0 0 24 24"><path d="M17.474 7.004v9.992a.477.477 0 0 1-.478.478H7.004a.477.477 0 0 1-.478-.478V7.004c0-.264.214-.478.478-.478h9.992c.264 0 .478.214.478.478Zm-.955.477H7.48v9.038h9.038V7.48Z"/><path d="m7.774 16.946-2.557 2.556a.185.185 0 0 0 .131.316H12a.51.51 0 0 1 0 1.018H3.673a.508.508 0 0 1-.509-.509V12a.51.51 0 0 1 1.018 0v6.652a.185.185 0 0 0 .316.131l2.493-2.494v.657h.783Zm8.455-9.894 2.554-2.554a.185.185 0 0 0-.131-.316H12a.51.51 0 0 1 0-1.018h8.327a.508.508 0 0 1 .509.509V12a.51.51 0 0 1-1.018 0V5.348a.185.185 0 0 0-.316-.131l-2.564 2.564v-.729h-.709Z"/></svg>