<svg xmlns="http://www.w3.org/2000/svg" xml:space="preserve" style="fill-rule:evenodd;clip-rule:evenodd;stroke-linejoin:round;stroke-miterlimit:2" viewBox="0 0 24 24"><path d="M12.636 21.712a.874.874 0 0 1-1.302 0l-8.03-8.922a.875.875 0 0 1 .651-1.462h16.06a.875.875 0 0 1 .65 1.462l-8.03 8.922ZM4.01 12.229l7.974 8.859 7.974-8.86H4.01ZM3.5 9.451a.451.451 0 0 1 0-.902h17a.451.451 0 0 1 0 .902h-17Zm0-5.5a.451.451 0 0 1 0-.902h17a.451.451 0 0 1 0 .902h-17Zm0 2.746a.451.451 0 0 1 0-.902h17a.451.451 0 0 1 0 .902h-17Z"/></svg>