<svg xmlns="http://www.w3.org/2000/svg" xml:space="preserve" style="fill-rule:evenodd;clip-rule:evenodd;stroke-linejoin:round;stroke-miterlimit:2" viewBox="0 0 24 24"><path d="M6.762 12.445h-2.46a.444.444 0 0 1 0-.889h2.46a5.146 5.146 0 0 0 0 .889Zm.48-2.68-2.13-1.229a.444.444 0 1 1 .444-.769l2.13 1.23a5.256 5.256 0 0 0-.445.769Zm1.755-2.078-1.23-2.131a.444.444 0 0 1 .77-.444l1.228 2.13a5.218 5.218 0 0 0-.768.445Zm2.56-.925v-2.46a.443.443 0 1 1 .887 0v2.46a5.13 5.13 0 0 0-.888 0Zm2.678.48 1.229-2.13a.445.445 0 0 1 .77.444l-1.231 2.13a5.218 5.218 0 0 0-.768-.445Zm-6.548 7.762-2.131 1.23a.444.444 0 1 1-.444-.77l2.13-1.229c.127.27.275.526.445.769Z"/><path d="M12 3c-4.967 0-9 4.033-9 9s4.033 9 9 9c-2.78-1.321-5.037-4.899-5.037-9S9.22 4.321 12 3Z" style="fill:#ebebeb" transform="scale(-.93972) rotate(47.69 27.636 -28.406)"/><path d="M5.927 17.251c2.535 1.04 6.237.355 8.938-2.104 2.7-2.458 3.73-6.08 2.933-8.701a.478.478 0 0 1 .81-.46c3.319 3.646 3.053 9.302-.593 12.621-3.647 3.32-9.303 3.054-12.622-.592a.477.477 0 0 1 .534-.764ZM7.54 18.62c2.98 2.009 7.056 1.807 9.83-.719a7.986 7.986 0 0 0 1.638-9.72c.03 2.58-1.147 5.53-3.501 7.672-2.354 2.143-5.402 3.038-7.967 2.767Z"/><path d="M9.571 14.794A3.617 3.617 0 0 1 8.242 12c0-2.021 1.684-3.662 3.758-3.662a3.79 3.79 0 0 1 2.942 1.384l-5.371 5.072Z" style="fill:#fff"/><path d="M9.258 15.172A4.108 4.108 0 0 1 7.752 12c0-2.288 1.9-4.153 4.248-4.153 1.345 0 2.544.612 3.321 1.565a.489.489 0 0 1-.043.666l-5.37 5.073a.491.491 0 0 1-.65.021Zm.312-1.052 4.68-4.419A3.31 3.31 0 0 0 12 8.828c-1.8 0-3.268 1.418-3.268 3.172 0 .816.318 1.559.838 2.12Z"/></svg>