<svg xmlns="http://www.w3.org/2000/svg" xml:space="preserve" style="fill-rule:evenodd;clip-rule:evenodd;stroke-linejoin:round;stroke-miterlimit:2" viewBox="0 0 24 24"><path d="M3.567 7.044a.499.499 0 0 1 .25-.433l8.133-4.696a.503.503 0 0 1 .501 0l8.133 4.696a.5.5 0 0 1 .25.434v9.391a.499.499 0 0 1-.25.433l-8.133 4.696a.498.498 0 0 1-.5 0l-8.134-4.696a.499.499 0 0 1-.25-.433V7.044Zm9.134 13.222 7.133-4.119V7.91l-7.133 4.119v8.237Zm-.54-9.08 7.173-4.142-7.133-4.119-7.138 4.121 7.098 4.14ZM4.567 7.914v8.233l7.134 4.119v-8.191L4.567 7.914Z"/></svg>