<svg xmlns="http://www.w3.org/2000/svg" xml:space="preserve" style="fill-rule:evenodd;clip-rule:evenodd;stroke-linecap:round;stroke-linejoin:round;stroke-miterlimit:1.5" viewBox="0 0 24 24"><path d="M17.423 6.442c1.623 2.288 2.285 4.377 2.671 7.058" style="fill:none;stroke:#000;stroke-width:1px"/><circle cx="14.523" cy="9.656" r="1.48" transform="matrix(.91815 0 0 .91815 1.637 1.405)"/><path d="M17.423 6.442c1.623 2.288 2.285 4.377 2.671 7.058" style="fill:none;stroke:#000;stroke-width:1px" transform="matrix(-1 0 0 1 24 0)"/><circle cx="14.523" cy="9.656" r="1.48" transform="matrix(-.91815 0 0 .91815 22.363 1.405)"/><path d="M18 4c-1.71 0-2.75.33-3.35.61C13.88 4.23 13 4 12 4s-1.88.23-2.65.61C8.75 4.33 7.71 4 6 4c-3 0-5 8-5 10 0 .83 1.32 1.59 3.14 1.9.64 2.24 3.66 3.95 7.36 4.1v-4.28c-.59-.37-1.5-1.04-1.5-1.72 0-1 2-1 2-1s2 0 2 1c0 .68-.91 1.35-1.5 1.72V20c3.7-.15 6.72-1.86 7.36-4.1C21.68 15.59 23 14.83 23 14c0-2-2-10-5-10Zm0 .969c-1.499 0-2.414.274-2.94.519a.968.968 0 0 1-.839-.009A4.961 4.961 0 0 0 12 4.969c-.838 0-1.576.192-2.221.51a.968.968 0 0 1-.839.009c-.526-.245-1.441-.519-2.94-.519-.359 0-.67.238-.976.554-.45.464-.851 1.116-1.21 1.848-1.138 2.322-1.83 5.434-1.844 6.593a.796.796 0 0 0 .066.085c.09.094.209.181.348.264.474.282 1.145.5 1.919.631a.97.97 0 0 1 .769.69c.202.706.723 1.329 1.439 1.85 1.022.742 2.426 1.261 4.02 1.464v-2.713a5.276 5.276 0 0 1-.912-.815 2.796 2.796 0 0 1-.343-.502A1.973 1.973 0 0 1 9.031 14c0-.668.351-1.167.913-1.494.773-.451 2.056-.475 2.056-.475s1.283.024 2.056.475c.562.327.913.826.913 1.494 0 .481-.213.978-.588 1.42a5.276 5.276 0 0 1-.912.815v2.713c1.594-.203 2.998-.722 4.02-1.464.716-.521 1.237-1.144 1.439-1.85a.97.97 0 0 1 .769-.69c.774-.131 1.445-.349 1.919-.631a1.66 1.66 0 0 0 .348-.264.796.796 0 0 0 .066-.085c-.014-1.159-.706-4.271-1.844-6.593-.359-.732-.76-1.384-1.21-1.848-.287-.297-.578-.524-.909-.551L18 4.969Z"/></svg>