<svg xmlns="http://www.w3.org/2000/svg" xml:space="preserve" style="fill-rule:evenodd;clip-rule:evenodd;stroke-linejoin:round;stroke-miterlimit:2" viewBox="0 0 24 24"><path d="M19.142 14.716a7.168 7.168 0 0 1-7.132 6.494 7.167 7.167 0 0 1-7.132-6.494h14.264Z"/><path d="M17.66 8A8.02 8.02 0 0 1 20 13.64c0 2-.78 4.11-2.34 5.67a7.99 7.99 0 0 1-11.32 0C4.78 17.75 4 15.64 4 13.64S4.78 9.56 6.34 8L12 2.35 17.66 8Zm-.729.73L12 3.808 7.069 8.73a6.982 6.982 0 0 0-2.037 4.91c0 1.743.678 3.581 2.038 4.94a6.96 6.96 0 0 0 9.86 0 7.041 7.041 0 0 0 2.038-4.94 6.982 6.982 0 0 0-2.037-4.91Z" style="fill-rule:nonzero"/></svg>